<mxfile host="app.diagrams.net" modified="2024-05-14T22:06:49.379Z" agent="Mozilla/5.0 (Windows NT 10.0; Win64; x64) AppleWebKit/537.36 (KHTML, like Gecko) Chrome/124.0.0.0 Safari/537.36" etag="1hhRb49DCGNuhRPbqZmq" version="24.2.8" type="device" pages="3">
  <diagram name="Trang-1" id="8RCWZLDX7yIvCZntO1Pm">
    <mxGraphModel dx="1434" dy="780" grid="1" gridSize="10" guides="1" tooltips="1" connect="1" arrows="1" fold="1" page="1" pageScale="1" pageWidth="827" pageHeight="1169" math="0" shadow="0">
      <root>
        <mxCell id="0" />
        <mxCell id="1" parent="0" />
        <mxCell id="gC_cR8cKo6qcBt6G3Y6X-1" value="Website" style="rounded=0;whiteSpace=wrap;html=1;" vertex="1" parent="1">
          <mxGeometry x="60" y="300" width="140" height="50" as="geometry" />
        </mxCell>
        <mxCell id="gC_cR8cKo6qcBt6G3Y6X-2" value="" style="endArrow=none;html=1;rounded=0;exitX=1;exitY=0.5;exitDx=0;exitDy=0;edgeStyle=orthogonalEdgeStyle;entryX=0;entryY=0.5;entryDx=0;entryDy=0;" edge="1" parent="1" source="gC_cR8cKo6qcBt6G3Y6X-1" target="gC_cR8cKo6qcBt6G3Y6X-4">
          <mxGeometry width="50" height="50" relative="1" as="geometry">
            <mxPoint x="390" y="430" as="sourcePoint" />
            <mxPoint x="440" y="380" as="targetPoint" />
          </mxGeometry>
        </mxCell>
        <mxCell id="gC_cR8cKo6qcBt6G3Y6X-4" value="Quản lý hệ thống" style="rounded=0;whiteSpace=wrap;html=1;" vertex="1" parent="1">
          <mxGeometry x="290" y="240" width="140" height="50" as="geometry" />
        </mxCell>
        <mxCell id="gC_cR8cKo6qcBt6G3Y6X-5" value="Khách hàng" style="rounded=0;whiteSpace=wrap;html=1;" vertex="1" parent="1">
          <mxGeometry x="290" y="360" width="140" height="50" as="geometry" />
        </mxCell>
        <mxCell id="gC_cR8cKo6qcBt6G3Y6X-7" value="" style="endArrow=none;html=1;rounded=0;exitX=1;exitY=0.5;exitDx=0;exitDy=0;edgeStyle=orthogonalEdgeStyle;entryX=0;entryY=0.5;entryDx=0;entryDy=0;" edge="1" parent="1" source="gC_cR8cKo6qcBt6G3Y6X-1" target="gC_cR8cKo6qcBt6G3Y6X-5">
          <mxGeometry width="50" height="50" relative="1" as="geometry">
            <mxPoint x="190" y="440" as="sourcePoint" />
            <mxPoint x="280" y="370" as="targetPoint" />
          </mxGeometry>
        </mxCell>
        <mxCell id="gC_cR8cKo6qcBt6G3Y6X-9" value="Quản lý người dùng" style="rounded=0;whiteSpace=wrap;html=1;" vertex="1" parent="1">
          <mxGeometry x="500" y="90" width="140" height="50" as="geometry" />
        </mxCell>
        <mxCell id="gC_cR8cKo6qcBt6G3Y6X-10" value="Quản lý&lt;div&gt;sản phẩm/kho hàng&lt;/div&gt;" style="rounded=0;whiteSpace=wrap;html=1;" vertex="1" parent="1">
          <mxGeometry x="500" y="150" width="140" height="50" as="geometry" />
        </mxCell>
        <mxCell id="gC_cR8cKo6qcBt6G3Y6X-11" value="Quản lý nhân viên" style="rounded=0;whiteSpace=wrap;html=1;" vertex="1" parent="1">
          <mxGeometry x="500" y="210" width="140" height="50" as="geometry" />
        </mxCell>
        <mxCell id="gC_cR8cKo6qcBt6G3Y6X-12" value="Quản lý đơn hàng" style="rounded=0;whiteSpace=wrap;html=1;" vertex="1" parent="1">
          <mxGeometry x="500" y="270" width="140" height="50" as="geometry" />
        </mxCell>
        <mxCell id="gC_cR8cKo6qcBt6G3Y6X-13" value="" style="endArrow=none;html=1;rounded=0;exitX=1;exitY=0.5;exitDx=0;exitDy=0;edgeStyle=orthogonalEdgeStyle;entryX=0;entryY=0.5;entryDx=0;entryDy=0;" edge="1" parent="1" source="gC_cR8cKo6qcBt6G3Y6X-4" target="gC_cR8cKo6qcBt6G3Y6X-9">
          <mxGeometry width="50" height="50" relative="1" as="geometry">
            <mxPoint x="250" y="210" as="sourcePoint" />
            <mxPoint x="340" y="150" as="targetPoint" />
          </mxGeometry>
        </mxCell>
        <mxCell id="gC_cR8cKo6qcBt6G3Y6X-14" value="" style="endArrow=none;html=1;rounded=0;exitX=1;exitY=0.5;exitDx=0;exitDy=0;edgeStyle=orthogonalEdgeStyle;entryX=0;entryY=0.5;entryDx=0;entryDy=0;" edge="1" parent="1" source="gC_cR8cKo6qcBt6G3Y6X-4" target="gC_cR8cKo6qcBt6G3Y6X-10">
          <mxGeometry width="50" height="50" relative="1" as="geometry">
            <mxPoint x="379" y="250" as="sourcePoint" />
            <mxPoint x="449" y="70" as="targetPoint" />
          </mxGeometry>
        </mxCell>
        <mxCell id="gC_cR8cKo6qcBt6G3Y6X-15" value="" style="endArrow=none;html=1;rounded=0;exitX=1;exitY=0.5;exitDx=0;exitDy=0;edgeStyle=orthogonalEdgeStyle;entryX=0;entryY=0.5;entryDx=0;entryDy=0;" edge="1" parent="1" source="gC_cR8cKo6qcBt6G3Y6X-4" target="gC_cR8cKo6qcBt6G3Y6X-11">
          <mxGeometry width="50" height="50" relative="1" as="geometry">
            <mxPoint x="530" y="510" as="sourcePoint" />
            <mxPoint x="600" y="330" as="targetPoint" />
          </mxGeometry>
        </mxCell>
        <mxCell id="gC_cR8cKo6qcBt6G3Y6X-16" value="" style="endArrow=none;html=1;rounded=0;exitX=1;exitY=0.5;exitDx=0;exitDy=0;edgeStyle=orthogonalEdgeStyle;entryX=0;entryY=0.5;entryDx=0;entryDy=0;" edge="1" parent="1" source="gC_cR8cKo6qcBt6G3Y6X-4" target="gC_cR8cKo6qcBt6G3Y6X-12">
          <mxGeometry width="50" height="50" relative="1" as="geometry">
            <mxPoint x="450" y="400" as="sourcePoint" />
            <mxPoint x="520" y="340" as="targetPoint" />
          </mxGeometry>
        </mxCell>
        <mxCell id="gC_cR8cKo6qcBt6G3Y6X-17" value="Đăng nhập" style="rounded=0;whiteSpace=wrap;html=1;" vertex="1" parent="1">
          <mxGeometry x="500" y="330" width="140" height="50" as="geometry" />
        </mxCell>
        <mxCell id="gC_cR8cKo6qcBt6G3Y6X-18" value="Đăng ký" style="rounded=0;whiteSpace=wrap;html=1;" vertex="1" parent="1">
          <mxGeometry x="500" y="390" width="140" height="50" as="geometry" />
        </mxCell>
        <mxCell id="gC_cR8cKo6qcBt6G3Y6X-19" value="Mua hàng" style="rounded=0;whiteSpace=wrap;html=1;" vertex="1" parent="1">
          <mxGeometry x="500" y="450" width="140" height="50" as="geometry" />
        </mxCell>
        <mxCell id="gC_cR8cKo6qcBt6G3Y6X-20" value="Xem chi tiết sản phẩm" style="rounded=0;whiteSpace=wrap;html=1;" vertex="1" parent="1">
          <mxGeometry x="500" y="510" width="140" height="50" as="geometry" />
        </mxCell>
        <mxCell id="gC_cR8cKo6qcBt6G3Y6X-21" value="Quản lý tài khoản&lt;div&gt;cá nhân&lt;/div&gt;" style="rounded=0;whiteSpace=wrap;html=1;" vertex="1" parent="1">
          <mxGeometry x="500" y="570" width="140" height="50" as="geometry" />
        </mxCell>
        <mxCell id="gC_cR8cKo6qcBt6G3Y6X-22" value="" style="endArrow=none;html=1;rounded=0;exitX=1;exitY=0.5;exitDx=0;exitDy=0;edgeStyle=orthogonalEdgeStyle;entryX=0;entryY=0.5;entryDx=0;entryDy=0;" edge="1" parent="1" source="gC_cR8cKo6qcBt6G3Y6X-5" target="gC_cR8cKo6qcBt6G3Y6X-21">
          <mxGeometry width="50" height="50" relative="1" as="geometry">
            <mxPoint x="379" y="580" as="sourcePoint" />
            <mxPoint x="449" y="580" as="targetPoint" />
          </mxGeometry>
        </mxCell>
        <mxCell id="gC_cR8cKo6qcBt6G3Y6X-23" value="" style="endArrow=none;html=1;rounded=0;exitX=1;exitY=0.5;exitDx=0;exitDy=0;edgeStyle=orthogonalEdgeStyle;entryX=0;entryY=0.5;entryDx=0;entryDy=0;" edge="1" parent="1" source="gC_cR8cKo6qcBt6G3Y6X-5" target="gC_cR8cKo6qcBt6G3Y6X-19">
          <mxGeometry width="50" height="50" relative="1" as="geometry">
            <mxPoint x="370" y="400" as="sourcePoint" />
            <mxPoint x="440" y="640" as="targetPoint" />
          </mxGeometry>
        </mxCell>
        <mxCell id="gC_cR8cKo6qcBt6G3Y6X-26" value="" style="endArrow=none;html=1;rounded=0;exitX=1;exitY=0.5;exitDx=0;exitDy=0;edgeStyle=orthogonalEdgeStyle;entryX=0;entryY=0.5;entryDx=0;entryDy=0;" edge="1" parent="1" source="gC_cR8cKo6qcBt6G3Y6X-5" target="gC_cR8cKo6qcBt6G3Y6X-18">
          <mxGeometry width="50" height="50" relative="1" as="geometry">
            <mxPoint x="325" y="410" as="sourcePoint" />
            <mxPoint x="395" y="530" as="targetPoint" />
          </mxGeometry>
        </mxCell>
        <mxCell id="gC_cR8cKo6qcBt6G3Y6X-27" value="" style="endArrow=none;html=1;rounded=0;edgeStyle=orthogonalEdgeStyle;entryX=0;entryY=0.5;entryDx=0;entryDy=0;exitX=1;exitY=0.5;exitDx=0;exitDy=0;" edge="1" parent="1" source="gC_cR8cKo6qcBt6G3Y6X-5" target="gC_cR8cKo6qcBt6G3Y6X-17">
          <mxGeometry width="50" height="50" relative="1" as="geometry">
            <mxPoint x="520" y="330" as="sourcePoint" />
            <mxPoint x="430" y="520" as="targetPoint" />
          </mxGeometry>
        </mxCell>
      </root>
    </mxGraphModel>
  </diagram>
  <diagram id="KPmybGwrDlU28YHo814F" name="Trang-2">
    <mxGraphModel dx="1434" dy="780" grid="1" gridSize="10" guides="1" tooltips="1" connect="1" arrows="1" fold="1" page="1" pageScale="1" pageWidth="827" pageHeight="1169" math="0" shadow="0">
      <root>
        <mxCell id="0" />
        <mxCell id="1" parent="0" />
        <mxCell id="Ucoc956_RpenvGRoWMO--7" style="edgeStyle=orthogonalEdgeStyle;rounded=0;orthogonalLoop=1;jettySize=auto;html=1;" edge="1" parent="1" source="Ucoc956_RpenvGRoWMO--1" target="Ucoc956_RpenvGRoWMO--6">
          <mxGeometry relative="1" as="geometry" />
        </mxCell>
        <mxCell id="Ucoc956_RpenvGRoWMO--18" style="rounded=0;orthogonalLoop=1;jettySize=auto;html=1;" edge="1" parent="1" source="Ucoc956_RpenvGRoWMO--1" target="Ucoc956_RpenvGRoWMO--9">
          <mxGeometry relative="1" as="geometry" />
        </mxCell>
        <mxCell id="Ucoc956_RpenvGRoWMO--1" value="Admin" style="shape=umlActor;verticalLabelPosition=bottom;verticalAlign=top;html=1;outlineConnect=0;" vertex="1" parent="1">
          <mxGeometry x="90" y="330" width="30" height="60" as="geometry" />
        </mxCell>
        <mxCell id="Ucoc956_RpenvGRoWMO--6" value="Đăng nhập" style="ellipse;whiteSpace=wrap;html=1;" vertex="1" parent="1">
          <mxGeometry x="440" y="330" width="120" height="60" as="geometry" />
        </mxCell>
        <mxCell id="Ucoc956_RpenvGRoWMO--8" value="Quản lý người dùng" style="ellipse;whiteSpace=wrap;html=1;" vertex="1" parent="1">
          <mxGeometry x="190" y="160" width="120" height="60" as="geometry" />
        </mxCell>
        <mxCell id="Ucoc956_RpenvGRoWMO--9" value="Quản lý&lt;div&gt;sản phẩm/kho hàng&lt;/div&gt;" style="ellipse;whiteSpace=wrap;html=1;" vertex="1" parent="1">
          <mxGeometry x="200" y="270" width="120" height="60" as="geometry" />
        </mxCell>
        <mxCell id="Ucoc956_RpenvGRoWMO--10" value="Quản lý đơn hàng" style="ellipse;whiteSpace=wrap;html=1;" vertex="1" parent="1">
          <mxGeometry x="210" y="380" width="120" height="60" as="geometry" />
        </mxCell>
        <mxCell id="Ucoc956_RpenvGRoWMO--11" value="Quản lý nhân viên" style="ellipse;whiteSpace=wrap;html=1;" vertex="1" parent="1">
          <mxGeometry x="190" y="480" width="120" height="60" as="geometry" />
        </mxCell>
        <mxCell id="Ucoc956_RpenvGRoWMO--13" value="" style="endArrow=none;dashed=1;html=1;rounded=0;startArrow=open;startFill=0;" edge="1" parent="1" source="Ucoc956_RpenvGRoWMO--6" target="Ucoc956_RpenvGRoWMO--10">
          <mxGeometry width="50" height="50" relative="1" as="geometry">
            <mxPoint x="389" y="520" as="sourcePoint" />
            <mxPoint x="439" y="470" as="targetPoint" />
          </mxGeometry>
        </mxCell>
        <mxCell id="Ucoc956_RpenvGRoWMO--29" value="&lt;span style=&quot;font-size: 13px;&quot;&gt;&amp;lt;include&amp;gt;&lt;/span&gt;" style="edgeLabel;html=1;align=center;verticalAlign=middle;resizable=0;points=[];" vertex="1" connectable="0" parent="Ucoc956_RpenvGRoWMO--13">
          <mxGeometry x="0.2538" y="1" relative="1" as="geometry">
            <mxPoint y="1" as="offset" />
          </mxGeometry>
        </mxCell>
        <mxCell id="Ucoc956_RpenvGRoWMO--14" value="" style="endArrow=none;dashed=1;html=1;rounded=0;startArrow=open;startFill=0;" edge="1" parent="1" source="Ucoc956_RpenvGRoWMO--6" target="Ucoc956_RpenvGRoWMO--11">
          <mxGeometry width="50" height="50" relative="1" as="geometry">
            <mxPoint x="413.87" y="489.69" as="sourcePoint" />
            <mxPoint x="353.87" y="531.69" as="targetPoint" />
          </mxGeometry>
        </mxCell>
        <mxCell id="Ucoc956_RpenvGRoWMO--27" value="&lt;span style=&quot;font-size: 13px;&quot;&gt;&amp;lt;include&amp;gt;&lt;/span&gt;" style="edgeLabel;html=1;align=center;verticalAlign=middle;resizable=0;points=[];" vertex="1" connectable="0" parent="Ucoc956_RpenvGRoWMO--14">
          <mxGeometry x="-0.4048" y="4" relative="1" as="geometry">
            <mxPoint y="-1" as="offset" />
          </mxGeometry>
        </mxCell>
        <mxCell id="Ucoc956_RpenvGRoWMO--15" value="" style="endArrow=none;dashed=1;html=1;rounded=0;startArrow=open;startFill=0;" edge="1" parent="1" source="Ucoc956_RpenvGRoWMO--6" target="Ucoc956_RpenvGRoWMO--8">
          <mxGeometry width="50" height="50" relative="1" as="geometry">
            <mxPoint x="536.17" y="160.17" as="sourcePoint" />
            <mxPoint x="440.16999999999996" y="256.16999999999996" as="targetPoint" />
          </mxGeometry>
        </mxCell>
        <mxCell id="Ucoc956_RpenvGRoWMO--24" value="&lt;font style=&quot;font-size: 13px;&quot;&gt;&amp;lt;include&amp;gt;&lt;/font&gt;" style="edgeLabel;html=1;align=center;verticalAlign=middle;resizable=0;points=[];" vertex="1" connectable="0" parent="Ucoc956_RpenvGRoWMO--15">
          <mxGeometry x="0.1961" y="-3" relative="1" as="geometry">
            <mxPoint as="offset" />
          </mxGeometry>
        </mxCell>
        <mxCell id="Ucoc956_RpenvGRoWMO--16" value="" style="endArrow=none;dashed=1;html=1;rounded=0;startArrow=open;startFill=0;" edge="1" parent="1" source="Ucoc956_RpenvGRoWMO--6" target="Ucoc956_RpenvGRoWMO--9">
          <mxGeometry width="50" height="50" relative="1" as="geometry">
            <mxPoint x="576.17" y="383.83" as="sourcePoint" />
            <mxPoint x="480.16999999999996" y="479.83" as="targetPoint" />
          </mxGeometry>
        </mxCell>
        <mxCell id="Ucoc956_RpenvGRoWMO--26" value="&lt;span style=&quot;font-size: 13px;&quot;&gt;&amp;lt;include&amp;gt;&lt;/span&gt;" style="edgeLabel;html=1;align=center;verticalAlign=middle;resizable=0;points=[];" vertex="1" connectable="0" parent="Ucoc956_RpenvGRoWMO--16">
          <mxGeometry x="-0.0214" y="-1" relative="1" as="geometry">
            <mxPoint as="offset" />
          </mxGeometry>
        </mxCell>
        <mxCell id="Ucoc956_RpenvGRoWMO--19" style="rounded=0;orthogonalLoop=1;jettySize=auto;html=1;" edge="1" parent="1" source="Ucoc956_RpenvGRoWMO--1" target="Ucoc956_RpenvGRoWMO--11">
          <mxGeometry relative="1" as="geometry">
            <mxPoint x="50" y="605.63" as="sourcePoint" />
            <mxPoint x="143" y="569.63" as="targetPoint" />
          </mxGeometry>
        </mxCell>
        <mxCell id="Ucoc956_RpenvGRoWMO--20" style="rounded=0;orthogonalLoop=1;jettySize=auto;html=1;" edge="1" parent="1" source="Ucoc956_RpenvGRoWMO--1" target="Ucoc956_RpenvGRoWMO--10">
          <mxGeometry relative="1" as="geometry">
            <mxPoint x="50" y="420.48" as="sourcePoint" />
            <mxPoint x="154" y="527.48" as="targetPoint" />
          </mxGeometry>
        </mxCell>
        <mxCell id="Ucoc956_RpenvGRoWMO--21" style="rounded=0;orthogonalLoop=1;jettySize=auto;html=1;" edge="1" parent="1" source="Ucoc956_RpenvGRoWMO--1" target="Ucoc956_RpenvGRoWMO--8">
          <mxGeometry relative="1" as="geometry">
            <mxPoint x="70" y="285.63" as="sourcePoint" />
            <mxPoint x="163" y="249.63" as="targetPoint" />
          </mxGeometry>
        </mxCell>
        <mxCell id="Ucoc956_RpenvGRoWMO--40" style="rounded=0;orthogonalLoop=1;jettySize=auto;html=1;" edge="1" parent="1" source="Ucoc956_RpenvGRoWMO--30" target="Ucoc956_RpenvGRoWMO--37">
          <mxGeometry relative="1" as="geometry" />
        </mxCell>
        <mxCell id="Ucoc956_RpenvGRoWMO--30" value="Actor" style="shape=umlActor;verticalLabelPosition=bottom;verticalAlign=top;html=1;outlineConnect=0;" vertex="1" parent="1">
          <mxGeometry x="960" y="330" width="30" height="60" as="geometry" />
        </mxCell>
        <mxCell id="Ucoc956_RpenvGRoWMO--32" value="Đăng nhập" style="ellipse;whiteSpace=wrap;html=1;" vertex="1" parent="1">
          <mxGeometry x="790" y="480" width="120" height="60" as="geometry" />
        </mxCell>
        <mxCell id="Ucoc956_RpenvGRoWMO--33" value="Đăng ký" style="ellipse;whiteSpace=wrap;html=1;" vertex="1" parent="1">
          <mxGeometry x="680" y="570" width="120" height="60" as="geometry" />
        </mxCell>
        <mxCell id="Ucoc956_RpenvGRoWMO--34" value="" style="endArrow=none;dashed=1;html=1;rounded=0;startArrow=open;startFill=0;exitX=0.642;exitY=0.067;exitDx=0;exitDy=0;exitPerimeter=0;" edge="1" parent="1" source="Ucoc956_RpenvGRoWMO--33" target="Ucoc956_RpenvGRoWMO--32">
          <mxGeometry width="50" height="50" relative="1" as="geometry">
            <mxPoint x="722.9999999999999" y="410" as="sourcePoint" />
            <mxPoint x="549.9999999999999" y="514" as="targetPoint" />
          </mxGeometry>
        </mxCell>
        <mxCell id="Ucoc956_RpenvGRoWMO--35" value="&lt;span style=&quot;font-size: 13px;&quot;&gt;&amp;lt;include&amp;gt;&lt;/span&gt;" style="edgeLabel;html=1;align=center;verticalAlign=middle;resizable=0;points=[];" vertex="1" connectable="0" parent="Ucoc956_RpenvGRoWMO--34">
          <mxGeometry x="-0.4048" y="4" relative="1" as="geometry">
            <mxPoint x="18" y="-9" as="offset" />
          </mxGeometry>
        </mxCell>
        <mxCell id="Ucoc956_RpenvGRoWMO--36" style="rounded=0;orthogonalLoop=1;jettySize=auto;html=1;" edge="1" parent="1" source="Ucoc956_RpenvGRoWMO--30" target="Ucoc956_RpenvGRoWMO--32">
          <mxGeometry relative="1" as="geometry">
            <mxPoint x="730" y="409.5" as="sourcePoint" />
            <mxPoint x="1050" y="409.5" as="targetPoint" />
          </mxGeometry>
        </mxCell>
        <mxCell id="Ucoc956_RpenvGRoWMO--37" value="Mua hàng" style="ellipse;whiteSpace=wrap;html=1;" vertex="1" parent="1">
          <mxGeometry x="780" y="360" width="120" height="60" as="geometry" />
        </mxCell>
        <mxCell id="Ucoc956_RpenvGRoWMO--38" value="Xem chi tiết&lt;div&gt;sản phẩm&lt;/div&gt;" style="ellipse;whiteSpace=wrap;html=1;" vertex="1" parent="1">
          <mxGeometry x="770" y="240" width="120" height="60" as="geometry" />
        </mxCell>
        <mxCell id="Ucoc956_RpenvGRoWMO--39" value="Quản lý&lt;div&gt;tài khoản cá nhân&lt;/div&gt;" style="ellipse;whiteSpace=wrap;html=1;" vertex="1" parent="1">
          <mxGeometry x="640" y="300" width="120" height="60" as="geometry" />
        </mxCell>
        <mxCell id="Ucoc956_RpenvGRoWMO--41" style="rounded=0;orthogonalLoop=1;jettySize=auto;html=1;" edge="1" parent="1" source="Ucoc956_RpenvGRoWMO--30" target="Ucoc956_RpenvGRoWMO--38">
          <mxGeometry relative="1" as="geometry">
            <mxPoint x="963.24" y="300.43" as="sourcePoint" />
            <mxPoint x="860.24" y="317.43" as="targetPoint" />
          </mxGeometry>
        </mxCell>
        <mxCell id="Ucoc956_RpenvGRoWMO--42" style="rounded=0;orthogonalLoop=1;jettySize=auto;html=1;" edge="1" parent="1" source="Ucoc956_RpenvGRoWMO--30" target="Ucoc956_RpenvGRoWMO--39">
          <mxGeometry relative="1" as="geometry">
            <mxPoint x="1007" y="302.08" as="sourcePoint" />
            <mxPoint x="880" y="240.07999999999998" as="targetPoint" />
          </mxGeometry>
        </mxCell>
        <mxCell id="Ucoc956_RpenvGRoWMO--44" value="" style="endArrow=none;dashed=1;html=1;rounded=0;startArrow=open;startFill=0;" edge="1" parent="1" source="Ucoc956_RpenvGRoWMO--32" target="Ucoc956_RpenvGRoWMO--37">
          <mxGeometry width="50" height="50" relative="1" as="geometry">
            <mxPoint x="789.52" y="390" as="sourcePoint" />
            <mxPoint x="616.52" y="494" as="targetPoint" />
          </mxGeometry>
        </mxCell>
        <mxCell id="Ucoc956_RpenvGRoWMO--45" value="&lt;span style=&quot;font-size: 13px;&quot;&gt;&amp;lt;include&amp;gt;&lt;/span&gt;" style="edgeLabel;html=1;align=center;verticalAlign=middle;resizable=0;points=[];" vertex="1" connectable="0" parent="Ucoc956_RpenvGRoWMO--44">
          <mxGeometry x="-0.4048" y="4" relative="1" as="geometry">
            <mxPoint x="-6" y="-24" as="offset" />
          </mxGeometry>
        </mxCell>
        <mxCell id="Ucoc956_RpenvGRoWMO--46" value="" style="endArrow=none;dashed=1;html=1;rounded=0;startArrow=open;startFill=0;" edge="1" parent="1" source="Ucoc956_RpenvGRoWMO--32" target="Ucoc956_RpenvGRoWMO--39">
          <mxGeometry width="50" height="50" relative="1" as="geometry">
            <mxPoint x="735.5" y="480.03" as="sourcePoint" />
            <mxPoint x="729.5" y="420.03" as="targetPoint" />
          </mxGeometry>
        </mxCell>
        <mxCell id="Ucoc956_RpenvGRoWMO--47" value="&lt;span style=&quot;font-size: 13px;&quot;&gt;&amp;lt;include&amp;gt;&lt;/span&gt;" style="edgeLabel;html=1;align=center;verticalAlign=middle;resizable=0;points=[];" vertex="1" connectable="0" parent="Ucoc956_RpenvGRoWMO--46">
          <mxGeometry x="-0.4048" y="4" relative="1" as="geometry">
            <mxPoint x="-6" y="-24" as="offset" />
          </mxGeometry>
        </mxCell>
      </root>
    </mxGraphModel>
  </diagram>
  <diagram id="6-FP8SL0POXYvnyLqCaq" name="Trang-3">
    <mxGraphModel dx="1434" dy="1949" grid="1" gridSize="10" guides="1" tooltips="1" connect="1" arrows="1" fold="1" page="1" pageScale="1" pageWidth="827" pageHeight="1169" math="0" shadow="0">
      <root>
        <mxCell id="0" />
        <mxCell id="1" parent="0" />
        <mxCell id="41JamVcmdNaZfCYakdny-1" style="edgeStyle=orthogonalEdgeStyle;rounded=0;orthogonalLoop=1;jettySize=auto;html=1;" edge="1" parent="1" source="41JamVcmdNaZfCYakdny-3" target="41JamVcmdNaZfCYakdny-4">
          <mxGeometry relative="1" as="geometry" />
        </mxCell>
        <mxCell id="41JamVcmdNaZfCYakdny-2" style="rounded=0;orthogonalLoop=1;jettySize=auto;html=1;" edge="1" parent="1" source="41JamVcmdNaZfCYakdny-3" target="41JamVcmdNaZfCYakdny-6">
          <mxGeometry relative="1" as="geometry" />
        </mxCell>
        <mxCell id="41JamVcmdNaZfCYakdny-3" value="Admin" style="shape=umlActor;verticalLabelPosition=bottom;verticalAlign=top;html=1;outlineConnect=0;" vertex="1" parent="1">
          <mxGeometry x="90" y="330" width="30" height="60" as="geometry" />
        </mxCell>
        <mxCell id="41JamVcmdNaZfCYakdny-4" value="Đăng nhập" style="ellipse;whiteSpace=wrap;html=1;" vertex="1" parent="1">
          <mxGeometry x="680" y="330" width="120" height="60" as="geometry" />
        </mxCell>
        <mxCell id="41JamVcmdNaZfCYakdny-5" value="Quản lý người dùng" style="ellipse;whiteSpace=wrap;html=1;" vertex="1" parent="1">
          <mxGeometry x="220" y="100" width="120" height="60" as="geometry" />
        </mxCell>
        <mxCell id="41JamVcmdNaZfCYakdny-6" value="Quản lý&lt;div&gt;sản phẩm/kho hàng&lt;/div&gt;" style="ellipse;whiteSpace=wrap;html=1;" vertex="1" parent="1">
          <mxGeometry x="264" y="180" width="120" height="60" as="geometry" />
        </mxCell>
        <mxCell id="41JamVcmdNaZfCYakdny-7" value="Quản lý đơn hàng" style="ellipse;whiteSpace=wrap;html=1;" vertex="1" parent="1">
          <mxGeometry x="295" y="490" width="120" height="60" as="geometry" />
        </mxCell>
        <mxCell id="41JamVcmdNaZfCYakdny-8" value="Quản lý nhân viên" style="ellipse;whiteSpace=wrap;html=1;" vertex="1" parent="1">
          <mxGeometry x="278" y="570" width="120" height="60" as="geometry" />
        </mxCell>
        <mxCell id="41JamVcmdNaZfCYakdny-9" value="" style="endArrow=none;dashed=1;html=1;rounded=0;startArrow=open;startFill=0;" edge="1" parent="1" source="41JamVcmdNaZfCYakdny-4" target="41JamVcmdNaZfCYakdny-7">
          <mxGeometry width="50" height="50" relative="1" as="geometry">
            <mxPoint x="389" y="520" as="sourcePoint" />
            <mxPoint x="439" y="470" as="targetPoint" />
          </mxGeometry>
        </mxCell>
        <mxCell id="41JamVcmdNaZfCYakdny-10" value="&lt;span style=&quot;font-size: 13px;&quot;&gt;&amp;lt;include&amp;gt;&lt;/span&gt;" style="edgeLabel;html=1;align=center;verticalAlign=middle;resizable=0;points=[];" vertex="1" connectable="0" parent="41JamVcmdNaZfCYakdny-9">
          <mxGeometry x="0.2538" y="1" relative="1" as="geometry">
            <mxPoint y="1" as="offset" />
          </mxGeometry>
        </mxCell>
        <mxCell id="41JamVcmdNaZfCYakdny-11" value="" style="endArrow=none;dashed=1;html=1;rounded=0;startArrow=open;startFill=0;" edge="1" parent="1" source="41JamVcmdNaZfCYakdny-4" target="41JamVcmdNaZfCYakdny-8">
          <mxGeometry width="50" height="50" relative="1" as="geometry">
            <mxPoint x="413.87" y="489.69" as="sourcePoint" />
            <mxPoint x="353.87" y="531.69" as="targetPoint" />
          </mxGeometry>
        </mxCell>
        <mxCell id="41JamVcmdNaZfCYakdny-12" value="&lt;span style=&quot;font-size: 13px;&quot;&gt;&amp;lt;include&amp;gt;&lt;/span&gt;" style="edgeLabel;html=1;align=center;verticalAlign=middle;resizable=0;points=[];" vertex="1" connectable="0" parent="41JamVcmdNaZfCYakdny-11">
          <mxGeometry x="-0.4048" y="4" relative="1" as="geometry">
            <mxPoint y="-1" as="offset" />
          </mxGeometry>
        </mxCell>
        <mxCell id="41JamVcmdNaZfCYakdny-13" value="" style="endArrow=none;dashed=1;html=1;rounded=0;startArrow=open;startFill=0;" edge="1" parent="1" source="41JamVcmdNaZfCYakdny-4" target="41JamVcmdNaZfCYakdny-5">
          <mxGeometry width="50" height="50" relative="1" as="geometry">
            <mxPoint x="536.17" y="160.17" as="sourcePoint" />
            <mxPoint x="440.16999999999996" y="256.16999999999996" as="targetPoint" />
          </mxGeometry>
        </mxCell>
        <mxCell id="41JamVcmdNaZfCYakdny-14" value="&lt;font style=&quot;font-size: 13px;&quot;&gt;&amp;lt;include&amp;gt;&lt;/font&gt;" style="edgeLabel;html=1;align=center;verticalAlign=middle;resizable=0;points=[];" vertex="1" connectable="0" parent="41JamVcmdNaZfCYakdny-13">
          <mxGeometry x="0.1961" y="-3" relative="1" as="geometry">
            <mxPoint as="offset" />
          </mxGeometry>
        </mxCell>
        <mxCell id="41JamVcmdNaZfCYakdny-15" value="" style="endArrow=none;dashed=1;html=1;rounded=0;startArrow=open;startFill=0;" edge="1" parent="1" source="41JamVcmdNaZfCYakdny-4" target="41JamVcmdNaZfCYakdny-6">
          <mxGeometry width="50" height="50" relative="1" as="geometry">
            <mxPoint x="576.17" y="383.83" as="sourcePoint" />
            <mxPoint x="480.16999999999996" y="479.83" as="targetPoint" />
          </mxGeometry>
        </mxCell>
        <mxCell id="41JamVcmdNaZfCYakdny-16" value="&lt;span style=&quot;font-size: 13px;&quot;&gt;&amp;lt;include&amp;gt;&lt;/span&gt;" style="edgeLabel;html=1;align=center;verticalAlign=middle;resizable=0;points=[];" vertex="1" connectable="0" parent="41JamVcmdNaZfCYakdny-15">
          <mxGeometry x="-0.0214" y="-1" relative="1" as="geometry">
            <mxPoint as="offset" />
          </mxGeometry>
        </mxCell>
        <mxCell id="41JamVcmdNaZfCYakdny-17" style="rounded=0;orthogonalLoop=1;jettySize=auto;html=1;" edge="1" parent="1" source="41JamVcmdNaZfCYakdny-3" target="41JamVcmdNaZfCYakdny-8">
          <mxGeometry relative="1" as="geometry">
            <mxPoint x="50" y="605.63" as="sourcePoint" />
            <mxPoint x="143" y="569.63" as="targetPoint" />
          </mxGeometry>
        </mxCell>
        <mxCell id="41JamVcmdNaZfCYakdny-18" style="rounded=0;orthogonalLoop=1;jettySize=auto;html=1;" edge="1" parent="1" source="41JamVcmdNaZfCYakdny-3" target="41JamVcmdNaZfCYakdny-7">
          <mxGeometry relative="1" as="geometry">
            <mxPoint x="50" y="420.48" as="sourcePoint" />
            <mxPoint x="154" y="527.48" as="targetPoint" />
          </mxGeometry>
        </mxCell>
        <mxCell id="41JamVcmdNaZfCYakdny-19" style="rounded=0;orthogonalLoop=1;jettySize=auto;html=1;" edge="1" parent="1" source="41JamVcmdNaZfCYakdny-3" target="41JamVcmdNaZfCYakdny-5">
          <mxGeometry relative="1" as="geometry">
            <mxPoint x="70" y="285.63" as="sourcePoint" />
            <mxPoint x="163" y="249.63" as="targetPoint" />
          </mxGeometry>
        </mxCell>
        <mxCell id="41JamVcmdNaZfCYakdny-21" value="Thêm" style="ellipse;whiteSpace=wrap;html=1;" vertex="1" parent="1">
          <mxGeometry x="230" y="290" width="80" height="40" as="geometry" />
        </mxCell>
        <mxCell id="41JamVcmdNaZfCYakdny-22" value="Sửa" style="ellipse;whiteSpace=wrap;html=1;" vertex="1" parent="1">
          <mxGeometry x="320" y="310" width="80" height="40" as="geometry" />
        </mxCell>
        <mxCell id="41JamVcmdNaZfCYakdny-23" value="Xóa" style="ellipse;whiteSpace=wrap;html=1;" vertex="1" parent="1">
          <mxGeometry x="394" y="270" width="80" height="40" as="geometry" />
        </mxCell>
        <mxCell id="41JamVcmdNaZfCYakdny-26" value="Thêm" style="ellipse;whiteSpace=wrap;html=1;" vertex="1" parent="1">
          <mxGeometry x="240" y="370" width="80" height="40" as="geometry" />
        </mxCell>
        <mxCell id="41JamVcmdNaZfCYakdny-29" value="Sửa" style="ellipse;whiteSpace=wrap;html=1;" vertex="1" parent="1">
          <mxGeometry x="344" y="370" width="80" height="40" as="geometry" />
        </mxCell>
        <mxCell id="41JamVcmdNaZfCYakdny-30" value="Xóa" style="ellipse;whiteSpace=wrap;html=1;" vertex="1" parent="1">
          <mxGeometry x="430" y="390" width="80" height="40" as="geometry" />
        </mxCell>
        <mxCell id="41JamVcmdNaZfCYakdny-31" value="" style="endArrow=none;dashed=1;html=1;rounded=0;startArrow=open;startFill=0;" edge="1" parent="1" source="41JamVcmdNaZfCYakdny-7" target="41JamVcmdNaZfCYakdny-30">
          <mxGeometry width="50" height="50" relative="1" as="geometry">
            <mxPoint x="787.62" y="501.27" as="sourcePoint" />
            <mxPoint x="469.62" y="667.27" as="targetPoint" />
          </mxGeometry>
        </mxCell>
        <mxCell id="41JamVcmdNaZfCYakdny-32" value="&lt;span style=&quot;font-size: 13px;&quot;&gt;&amp;lt;extend&amp;gt;&lt;/span&gt;" style="edgeLabel;html=1;align=center;verticalAlign=middle;resizable=0;points=[];" vertex="1" connectable="0" parent="41JamVcmdNaZfCYakdny-31">
          <mxGeometry x="0.2538" y="1" relative="1" as="geometry">
            <mxPoint y="1" as="offset" />
          </mxGeometry>
        </mxCell>
        <mxCell id="41JamVcmdNaZfCYakdny-33" value="" style="endArrow=none;dashed=1;html=1;rounded=0;startArrow=open;startFill=0;" edge="1" parent="1" source="41JamVcmdNaZfCYakdny-7" target="41JamVcmdNaZfCYakdny-29">
          <mxGeometry width="50" height="50" relative="1" as="geometry">
            <mxPoint x="299.68" y="543.43" as="sourcePoint" />
            <mxPoint x="382.68" y="440.43" as="targetPoint" />
          </mxGeometry>
        </mxCell>
        <mxCell id="41JamVcmdNaZfCYakdny-34" value="&lt;span style=&quot;font-size: 13px;&quot;&gt;&amp;lt;extend&amp;gt;&lt;/span&gt;" style="edgeLabel;html=1;align=center;verticalAlign=middle;resizable=0;points=[];" vertex="1" connectable="0" parent="41JamVcmdNaZfCYakdny-33">
          <mxGeometry x="0.2538" y="1" relative="1" as="geometry">
            <mxPoint y="1" as="offset" />
          </mxGeometry>
        </mxCell>
        <mxCell id="41JamVcmdNaZfCYakdny-35" value="" style="endArrow=none;dashed=1;html=1;rounded=0;startArrow=open;startFill=0;" edge="1" parent="1" source="41JamVcmdNaZfCYakdny-7" target="41JamVcmdNaZfCYakdny-26">
          <mxGeometry width="50" height="50" relative="1" as="geometry">
            <mxPoint x="308" y="540.1" as="sourcePoint" />
            <mxPoint x="332" y="420.1" as="targetPoint" />
          </mxGeometry>
        </mxCell>
        <mxCell id="41JamVcmdNaZfCYakdny-36" value="&lt;span style=&quot;font-size: 13px;&quot;&gt;&amp;lt;extend&amp;gt;&lt;/span&gt;" style="edgeLabel;html=1;align=center;verticalAlign=middle;resizable=0;points=[];" vertex="1" connectable="0" parent="41JamVcmdNaZfCYakdny-35">
          <mxGeometry x="0.2538" y="1" relative="1" as="geometry">
            <mxPoint y="1" as="offset" />
          </mxGeometry>
        </mxCell>
        <mxCell id="41JamVcmdNaZfCYakdny-37" value="" style="endArrow=none;dashed=1;html=1;rounded=0;startArrow=open;startFill=0;" edge="1" parent="1" source="41JamVcmdNaZfCYakdny-6" target="41JamVcmdNaZfCYakdny-21">
          <mxGeometry width="50" height="50" relative="1" as="geometry">
            <mxPoint x="119.96000000000001" y="511.41" as="sourcePoint" />
            <mxPoint x="69.96000000000001" y="390.41" as="targetPoint" />
          </mxGeometry>
        </mxCell>
        <mxCell id="41JamVcmdNaZfCYakdny-38" value="&lt;span style=&quot;font-size: 13px;&quot;&gt;&amp;lt;extend&amp;gt;&lt;/span&gt;" style="edgeLabel;html=1;align=center;verticalAlign=middle;resizable=0;points=[];" vertex="1" connectable="0" parent="41JamVcmdNaZfCYakdny-37">
          <mxGeometry x="0.2538" y="1" relative="1" as="geometry">
            <mxPoint y="1" as="offset" />
          </mxGeometry>
        </mxCell>
        <mxCell id="41JamVcmdNaZfCYakdny-39" value="" style="endArrow=none;dashed=1;html=1;rounded=0;startArrow=open;startFill=0;" edge="1" parent="1" source="41JamVcmdNaZfCYakdny-6" target="41JamVcmdNaZfCYakdny-23">
          <mxGeometry width="50" height="50" relative="1" as="geometry">
            <mxPoint x="90" y="511" as="sourcePoint" />
            <mxPoint x="40.00000000000001" y="390" as="targetPoint" />
          </mxGeometry>
        </mxCell>
        <mxCell id="41JamVcmdNaZfCYakdny-40" value="&lt;span style=&quot;font-size: 13px;&quot;&gt;&amp;lt;extend&amp;gt;&lt;/span&gt;" style="edgeLabel;html=1;align=center;verticalAlign=middle;resizable=0;points=[];" vertex="1" connectable="0" parent="41JamVcmdNaZfCYakdny-39">
          <mxGeometry x="0.2538" y="1" relative="1" as="geometry">
            <mxPoint y="1" as="offset" />
          </mxGeometry>
        </mxCell>
        <mxCell id="41JamVcmdNaZfCYakdny-43" value="" style="endArrow=none;dashed=1;html=1;rounded=0;startArrow=open;startFill=0;" edge="1" parent="1" source="41JamVcmdNaZfCYakdny-6" target="41JamVcmdNaZfCYakdny-22">
          <mxGeometry width="50" height="50" relative="1" as="geometry">
            <mxPoint x="80" y="600" as="sourcePoint" />
            <mxPoint x="30.000000000000007" y="479" as="targetPoint" />
          </mxGeometry>
        </mxCell>
        <mxCell id="41JamVcmdNaZfCYakdny-44" value="&lt;span style=&quot;font-size: 13px;&quot;&gt;&amp;lt;extend&amp;gt;&lt;/span&gt;" style="edgeLabel;html=1;align=center;verticalAlign=middle;resizable=0;points=[];" vertex="1" connectable="0" parent="41JamVcmdNaZfCYakdny-43">
          <mxGeometry x="0.2538" y="1" relative="1" as="geometry">
            <mxPoint y="1" as="offset" />
          </mxGeometry>
        </mxCell>
        <mxCell id="41JamVcmdNaZfCYakdny-45" value="Thêm" style="ellipse;whiteSpace=wrap;html=1;" vertex="1" parent="1">
          <mxGeometry x="120" y="10" width="80" height="40" as="geometry" />
        </mxCell>
        <mxCell id="41JamVcmdNaZfCYakdny-46" value="Sửa" style="ellipse;whiteSpace=wrap;html=1;" vertex="1" parent="1">
          <mxGeometry x="190" y="-40" width="80" height="40" as="geometry" />
        </mxCell>
        <mxCell id="41JamVcmdNaZfCYakdny-47" value="Xóa" style="ellipse;whiteSpace=wrap;html=1;" vertex="1" parent="1">
          <mxGeometry x="284" y="-10" width="80" height="40" as="geometry" />
        </mxCell>
        <mxCell id="41JamVcmdNaZfCYakdny-48" value="" style="endArrow=none;dashed=1;html=1;rounded=0;startArrow=open;startFill=0;" edge="1" parent="1" source="41JamVcmdNaZfCYakdny-5" target="41JamVcmdNaZfCYakdny-45">
          <mxGeometry width="50" height="50" relative="1" as="geometry">
            <mxPoint x="424.91999999999996" y="-66.12" as="sourcePoint" />
            <mxPoint x="399.91999999999996" y="13.879999999999995" as="targetPoint" />
          </mxGeometry>
        </mxCell>
        <mxCell id="41JamVcmdNaZfCYakdny-49" value="&lt;span style=&quot;font-size: 13px;&quot;&gt;&amp;lt;extend&amp;gt;&lt;/span&gt;" style="edgeLabel;html=1;align=center;verticalAlign=middle;resizable=0;points=[];" vertex="1" connectable="0" parent="41JamVcmdNaZfCYakdny-48">
          <mxGeometry x="0.2538" y="1" relative="1" as="geometry">
            <mxPoint y="1" as="offset" />
          </mxGeometry>
        </mxCell>
        <mxCell id="41JamVcmdNaZfCYakdny-50" value="" style="endArrow=none;dashed=1;html=1;rounded=0;startArrow=open;startFill=0;" edge="1" parent="1" source="41JamVcmdNaZfCYakdny-5" target="41JamVcmdNaZfCYakdny-46">
          <mxGeometry width="50" height="50" relative="1" as="geometry">
            <mxPoint x="443.91999999999996" y="-66.12" as="sourcePoint" />
            <mxPoint x="476.91999999999996" y="33.879999999999995" as="targetPoint" />
          </mxGeometry>
        </mxCell>
        <mxCell id="41JamVcmdNaZfCYakdny-51" value="&lt;span style=&quot;font-size: 13px;&quot;&gt;&amp;lt;extend&amp;gt;&lt;/span&gt;" style="edgeLabel;html=1;align=center;verticalAlign=middle;resizable=0;points=[];" vertex="1" connectable="0" parent="41JamVcmdNaZfCYakdny-50">
          <mxGeometry x="0.2538" y="1" relative="1" as="geometry">
            <mxPoint y="1" as="offset" />
          </mxGeometry>
        </mxCell>
        <mxCell id="41JamVcmdNaZfCYakdny-52" value="" style="endArrow=none;dashed=1;html=1;rounded=0;startArrow=open;startFill=0;" edge="1" parent="1" source="41JamVcmdNaZfCYakdny-5" target="41JamVcmdNaZfCYakdny-47">
          <mxGeometry width="50" height="50" relative="1" as="geometry">
            <mxPoint x="463.91999999999996" y="-70.12" as="sourcePoint" />
            <mxPoint x="537.92" y="-3.1200000000000045" as="targetPoint" />
          </mxGeometry>
        </mxCell>
        <mxCell id="41JamVcmdNaZfCYakdny-53" value="&lt;span style=&quot;font-size: 13px;&quot;&gt;&amp;lt;extend&amp;gt;&lt;/span&gt;" style="edgeLabel;html=1;align=center;verticalAlign=middle;resizable=0;points=[];" vertex="1" connectable="0" parent="41JamVcmdNaZfCYakdny-52">
          <mxGeometry x="0.2538" y="1" relative="1" as="geometry">
            <mxPoint y="1" as="offset" />
          </mxGeometry>
        </mxCell>
        <mxCell id="41JamVcmdNaZfCYakdny-54" value="Xóa" style="ellipse;whiteSpace=wrap;html=1;" vertex="1" parent="1">
          <mxGeometry x="404" y="670" width="80" height="40" as="geometry" />
        </mxCell>
        <mxCell id="41JamVcmdNaZfCYakdny-55" value="Thêm" style="ellipse;whiteSpace=wrap;html=1;" vertex="1" parent="1">
          <mxGeometry x="240" y="690" width="80" height="40" as="geometry" />
        </mxCell>
        <mxCell id="41JamVcmdNaZfCYakdny-56" value="" style="endArrow=none;dashed=1;html=1;rounded=0;startArrow=open;startFill=0;" edge="1" target="41JamVcmdNaZfCYakdny-62" parent="1" source="41JamVcmdNaZfCYakdny-8">
          <mxGeometry width="50" height="50" relative="1" as="geometry">
            <mxPoint x="270" y="804" as="sourcePoint" />
            <mxPoint y="1083" as="targetPoint" />
          </mxGeometry>
        </mxCell>
        <mxCell id="41JamVcmdNaZfCYakdny-57" value="&lt;span style=&quot;font-size: 13px;&quot;&gt;&amp;lt;extend&amp;gt;&lt;/span&gt;" style="edgeLabel;html=1;align=center;verticalAlign=middle;resizable=0;points=[];" vertex="1" connectable="0" parent="41JamVcmdNaZfCYakdny-56">
          <mxGeometry x="0.2538" y="1" relative="1" as="geometry">
            <mxPoint y="1" as="offset" />
          </mxGeometry>
        </mxCell>
        <mxCell id="41JamVcmdNaZfCYakdny-58" value="" style="endArrow=none;dashed=1;html=1;rounded=0;startArrow=open;startFill=0;" edge="1" target="41JamVcmdNaZfCYakdny-54" parent="1" source="41JamVcmdNaZfCYakdny-8">
          <mxGeometry width="50" height="50" relative="1" as="geometry">
            <mxPoint x="290" y="800" as="sourcePoint" />
            <mxPoint x="10" y="994" as="targetPoint" />
          </mxGeometry>
        </mxCell>
        <mxCell id="41JamVcmdNaZfCYakdny-59" value="&lt;span style=&quot;font-size: 13px;&quot;&gt;&amp;lt;extend&amp;gt;&lt;/span&gt;" style="edgeLabel;html=1;align=center;verticalAlign=middle;resizable=0;points=[];" vertex="1" connectable="0" parent="41JamVcmdNaZfCYakdny-58">
          <mxGeometry x="0.2538" y="1" relative="1" as="geometry">
            <mxPoint y="1" as="offset" />
          </mxGeometry>
        </mxCell>
        <mxCell id="41JamVcmdNaZfCYakdny-60" value="" style="endArrow=none;dashed=1;html=1;rounded=0;startArrow=open;startFill=0;" edge="1" target="41JamVcmdNaZfCYakdny-55" parent="1" source="41JamVcmdNaZfCYakdny-8">
          <mxGeometry width="50" height="50" relative="1" as="geometry">
            <mxPoint x="251" y="804" as="sourcePoint" />
            <mxPoint x="39.960000000000036" y="994.41" as="targetPoint" />
          </mxGeometry>
        </mxCell>
        <mxCell id="41JamVcmdNaZfCYakdny-61" value="&lt;span style=&quot;font-size: 13px;&quot;&gt;&amp;lt;extend&amp;gt;&lt;/span&gt;" style="edgeLabel;html=1;align=center;verticalAlign=middle;resizable=0;points=[];" vertex="1" connectable="0" parent="41JamVcmdNaZfCYakdny-60">
          <mxGeometry x="0.2538" y="1" relative="1" as="geometry">
            <mxPoint y="1" as="offset" />
          </mxGeometry>
        </mxCell>
        <mxCell id="41JamVcmdNaZfCYakdny-62" value="Sửa" style="ellipse;whiteSpace=wrap;html=1;" vertex="1" parent="1">
          <mxGeometry x="330" y="710" width="80" height="40" as="geometry" />
        </mxCell>
      </root>
    </mxGraphModel>
  </diagram>
</mxfile>
